<svg version="1.1" id="Layer_1" xmlns="http://www.w3.org/2000/svg" xmlns:xlink="http://www.w3.org/1999/xlink" x="0px" y="0px"
	 width="100%" viewBox="0 0 512 512" enable-background="new 0 0 512 512" xml:space="preserve">
<path fill="#F5F8FB" opacity="1.000000" stroke="none" 
	d="
M270.000000,1.000000 
	C350.964661,1.000000 431.929321,1.000000 512.947021,1.000000 
	C512.947021,171.556824 512.947021,342.113678 512.947021,513.000000 
	C433.311615,513.000000 353.622803,513.000000 273.612030,512.607666 
	C280.999390,510.541443 288.897675,509.462769 296.383759,507.085968 
	C322.367279,498.836456 343.449677,483.697754 359.900543,461.762299 
	C374.020172,442.935242 382.524536,421.878754 384.729645,398.768585 
	C386.424530,381.005493 385.367767,363.084320 379.428864,345.807037 
	C372.804871,326.536713 363.150726,309.134583 348.315369,295.024353 
	C344.206726,291.116547 342.867188,287.173737 342.882507,281.640503 
	C343.064789,215.809006 343.059784,149.976654 342.898895,84.145035 
	C342.884308,78.172874 342.061127,72.045700 340.561249,66.263428 
	C335.959717,48.523533 327.037750,33.408482 312.944031,21.262482 
	C303.812317,13.392746 293.439484,8.179786 282.323639,4.163153 
	C278.353180,2.728459 274.115631,2.032924 270.000000,1.000000 
z"/>
<path fill="#F5F8FB" opacity="1.000000" stroke="none" 
	d="
M237.000000,513.000000 
	C158.367828,513.000000 79.735672,513.000000 1.051751,513.000000 
	C1.051751,342.442688 1.051751,171.885376 1.051751,1.000000 
	C81.355049,1.000000 161.710541,1.000000 242.399750,1.383053 
	C241.268387,1.934323 239.751205,1.912998 238.346191,2.299506 
	C220.410583,7.233438 204.733414,15.614464 192.285751,30.023039 
	C178.555832,45.915874 171.278610,64.258415 171.152573,84.868523 
	C170.744141,151.653900 171.021729,218.443405 170.904129,285.231049 
	C170.900253,287.429443 170.119598,290.304565 168.620132,291.715485 
	C155.993515,303.596680 146.472382,317.608826 139.316299,333.289429 
	C133.725708,345.539703 130.179230,358.504028 129.218887,371.833954 
	C128.462845,382.328430 128.594528,393.139557 130.288574,403.489777 
	C132.138397,414.791687 135.219116,426.145386 139.575668,436.730560 
	C148.368484,458.094513 162.716888,475.486725 181.543854,488.989990 
	C193.500320,497.565491 206.396500,504.288177 220.739792,508.052002 
	C226.215607,509.488922 231.583130,511.338470 237.000000,513.000000 
z"/>
<path fill="#000000" opacity="1.000000" stroke="none" 
	d="
M237.468658,513.000000 
	C231.583130,511.338470 226.215607,509.488922 220.739792,508.052002 
	C206.396500,504.288177 193.500320,497.565491 181.543854,488.989990 
	C162.716888,475.486725 148.368484,458.094513 139.575668,436.730560 
	C135.219116,426.145386 132.138397,414.791687 130.288574,403.489777 
	C128.594528,393.139557 128.462845,382.328430 129.218887,371.833954 
	C130.179230,358.504028 133.725708,345.539703 139.316299,333.289429 
	C146.472382,317.608826 155.993515,303.596680 168.620132,291.715485 
	C170.119598,290.304565 170.900253,287.429443 170.904129,285.231049 
	C171.021729,218.443405 170.744141,151.653900 171.152573,84.868523 
	C171.278610,64.258415 178.555832,45.915874 192.285751,30.023039 
	C204.733414,15.614464 220.410583,7.233438 238.346191,2.299506 
	C239.751205,1.912998 241.268387,1.934323 242.866730,1.383053 
	C251.687561,1.000000 260.375122,1.000000 269.531342,1.000000 
	C274.115631,2.032924 278.353180,2.728459 282.323639,4.163153 
	C293.439484,8.179786 303.812317,13.392746 312.944031,21.262482 
	C327.037750,33.408482 335.959717,48.523533 340.561249,66.263428 
	C342.061127,72.045700 342.884308,78.172874 342.898895,84.145035 
	C343.059784,149.976654 343.064789,215.809006 342.882507,281.640503 
	C342.867188,287.173737 344.206726,291.116547 348.315369,295.024353 
	C363.150726,309.134583 372.804871,326.536713 379.428864,345.807037 
	C385.367767,363.084320 386.424530,381.005493 384.729645,398.768585 
	C382.524536,421.878754 374.020172,442.935242 359.900543,461.762299 
	C343.449677,483.697754 322.367279,498.836456 296.383759,507.085968 
	C288.897675,509.462769 280.999390,510.541443 273.145050,512.607666 
	C261.312439,513.000000 249.624878,513.000000 237.468658,513.000000 
M302.597504,456.036407 
	C309.182831,450.405914 316.885284,445.655731 322.145233,438.980835 
	C338.280518,418.505005 345.316223,395.344849 340.077423,369.037262 
	C335.784332,347.478638 324.523346,330.560944 307.655182,316.928253 
	C302.373444,312.659607 298.687073,308.201294 298.738251,300.077637 
	C299.189514,228.427444 298.988861,156.773224 299.014313,85.120209 
	C299.017426,76.366867 296.071136,68.362488 290.946655,61.744778 
	C281.171906,49.121803 268.345856,43.047634 251.729568,44.846790 
	C231.432281,47.044510 215.106064,65.472893 215.062561,85.148621 
	C214.904160,156.801300 214.827713,228.455551 215.245865,300.106140 
	C215.291565,307.937805 211.571274,312.093140 206.805939,316.741058 
	C200.367203,323.021179 193.344666,328.982513 188.165680,336.220490 
	C174.281540,355.624451 169.075256,377.282166 173.972595,401.039856 
	C179.259567,426.687592 193.187317,446.178894 215.948257,458.878326 
	C231.669861,467.650238 248.608994,471.713165 266.894073,469.087646 
	C279.535339,467.272522 291.279327,463.427155 302.597504,456.036407 
z"/>
<path fill="#F5F8FB" opacity="1.000000" stroke="none" 
	d="
M302.301147,456.268433 
	C291.279327,463.427155 279.535339,467.272522 266.894073,469.087646 
	C248.608994,471.713165 231.669861,467.650238 215.948257,458.878326 
	C193.187317,446.178894 179.259567,426.687592 173.972595,401.039856 
	C169.075256,377.282166 174.281540,355.624451 188.165680,336.220490 
	C193.344666,328.982513 200.367203,323.021179 206.805939,316.741058 
	C211.571274,312.093140 215.291565,307.937805 215.245865,300.106140 
	C214.827713,228.455551 214.904160,156.801300 215.062561,85.148621 
	C215.106064,65.472893 231.432281,47.044510 251.729568,44.846790 
	C268.345856,43.047634 281.171906,49.121803 290.946655,61.744778 
	C296.071136,68.362488 299.017426,76.366867 299.014313,85.120209 
	C298.988861,156.773224 299.189514,228.427444 298.738251,300.077637 
	C298.687073,308.201294 302.373444,312.659607 307.655182,316.928253 
	C324.523346,330.560944 335.784332,347.478638 340.077423,369.037262 
	C345.316223,395.344849 338.280518,418.505005 322.145233,438.980835 
	C316.885284,445.655731 309.182831,450.405914 302.301147,456.268433 
M312.041138,418.534851 
	C333.076141,383.280792 317.006195,337.765533 278.778442,324.229523 
	C278.778442,273.306396 278.778442,222.248688 278.778442,171.295837 
	C263.997864,171.295837 249.597153,171.295837 235.012726,171.295837 
	C235.012726,222.535233 235.012726,273.479279 235.012726,324.346649 
	C223.554245,328.964508 213.683624,335.208832 206.180450,345.182800 
	C193.373825,362.206635 189.841019,381.024689 194.866394,401.338135 
	C199.873962,421.579620 212.186279,436.030914 231.602051,444.157074 
	C247.275894,450.717163 263.108490,450.989960 279.107117,445.433472 
	C293.126129,440.564514 303.958191,431.699219 312.041138,418.534851 
z"/>
<path fill="#000000" opacity="1.000000" stroke="none" 
	d="
M312.007202,418.911438 
	C303.958191,431.699219 293.126129,440.564514 279.107117,445.433472 
	C263.108490,450.989960 247.275894,450.717163 231.602051,444.157074 
	C212.186279,436.030914 199.873962,421.579620 194.866394,401.338135 
	C189.841019,381.024689 193.373825,362.206635 206.180450,345.182800 
	C213.683624,335.208832 223.554245,328.964508 235.012726,324.346649 
	C235.012726,273.479279 235.012726,222.535233 235.012726,171.295837 
	C249.597153,171.295837 263.997864,171.295837 278.778442,171.295837 
	C278.778442,222.248688 278.778442,273.306396 278.778442,324.229523 
	C317.006195,337.765533 333.076141,383.280792 312.007202,418.911438 
z"/>
</svg>