<svg version="1.1" id="Layer_1" xmlns="http://www.w3.org/2000/svg" xmlns:xlink="http://www.w3.org/1999/xlink" x="0px" y="0px"
	 width="100%" viewBox="0 0 512 512" enable-background="new 0 0 512 512" xml:space="preserve">
<path fill="#FFA81E" opacity="1.000000" stroke="none" 
	d="
M224.000000,1.000000 
	C234.687561,1.000000 245.375122,1.000000 256.531006,1.468657 
	C256.996490,19.619659 256.993713,37.302006 256.527039,54.992630 
	C247.602066,55.615116 239.090469,55.834839 230.688354,56.910034 
	C188.400223,62.321537 151.205368,79.390709 120.336388,108.606293 
	C70.199303,156.057938 48.717060,214.567459 56.933765,283.329620 
	C61.993008,325.668304 79.585434,362.631958 108.591072,393.711243 
	C148.589188,436.568878 198.329468,458.141602 256.992798,459.483398 
	C256.996399,477.634033 256.998199,495.317017 257.000000,513.000000 
	C246.645767,513.000000 236.291550,513.000000 225.808792,512.664429 
	C224.840286,511.889099 224.046585,511.233185 223.153412,511.042023 
	C208.884644,507.987854 194.395721,505.735779 180.371002,501.818542 
	C156.615311,495.183350 134.640228,484.216705 114.235771,470.469421 
	C94.639603,457.266724 77.317703,441.373322 61.819672,423.445496 
	C50.251465,410.063660 40.162769,395.696594 31.744209,380.216705 
	C16.715570,352.582245 6.762518,323.218658 2.918142,291.887512 
	C2.832603,291.190399 1.663598,290.626190 1.000000,290.000000 
	C1.000000,268.312439 1.000000,246.624878 1.329935,224.809402 
	C2.093581,224.011597 2.790704,223.388580 2.919549,222.664444 
	C4.002469,216.578308 4.871282,210.453064 6.010173,204.378128 
	C11.300082,176.161438 21.851219,149.870605 36.436337,125.310349 
	C51.061268,100.683083 69.425407,78.902832 91.799660,60.997765 
	C105.087540,50.364082 119.103073,40.329994 133.870956,31.922499 
	C161.189438,16.369829 190.770203,6.742207 222.112885,2.918107 
	C222.809555,2.833106 223.373917,1.663610 224.000000,1.000000 
z"/>
<path fill="#FFA81E" opacity="1.000000" stroke="none" 
	d="
M256.990906,54.984352 
	C256.993713,37.302006 256.996490,19.619659 256.999634,1.468657 
	C267.354218,1.000000 277.708466,1.000000 288.248474,1.369931 
	C289.282013,2.155957 290.092468,2.811492 290.983398,2.950234 
	C298.069244,4.053664 305.293793,4.538602 312.244659,6.187619 
	C337.617737,12.207088 362.281952,20.498713 384.483124,34.368050 
	C399.225189,43.577591 413.797455,53.448860 426.889069,64.816597 
	C445.292328,80.796593 461.167572,99.282944 474.155640,120.179253 
	C483.991211,136.003494 492.318817,152.474777 498.459381,170.011078 
	C504.477814,187.198624 509.465149,204.680038 511.088501,222.948883 
	C511.153748,223.683411 512.337463,224.318542 513.000000,225.000000 
	C513.000000,246.020889 513.000000,267.041779 512.630188,288.248657 
	C511.844421,289.282257 511.189056,290.092590 511.050385,290.983368 
	C509.946899,298.072815 509.462280,305.301086 507.812653,312.255432 
	C501.793243,337.631500 493.544556,362.317657 479.619354,384.495789 
	C470.288910,399.355957 460.306519,414.059875 448.758881,427.202087 
	C437.701996,439.785736 424.737061,450.860535 411.726105,461.518585 
	C394.145294,475.920013 374.255890,486.721863 353.076019,495.036377 
	C332.899933,502.956848 312.253906,509.065674 290.554901,511.105621 
	C289.982300,511.159454 289.515900,512.343201 289.000000,513.000000 
	C278.645782,513.000000 268.291534,513.000000 257.468658,513.000000 
	C256.998199,495.317017 256.996399,477.634033 256.961975,459.473297 
	C256.929321,458.995544 256.947021,458.933044 257.417969,458.953125 
	C270.607086,457.809448 283.551331,457.776215 296.003998,455.285309 
	C348.623230,444.759888 390.788940,417.376892 421.853302,373.663849 
	C455.188019,326.755920 465.974060,274.468536 455.349915,218.147461 
	C446.546265,171.477295 423.201508,132.807480 386.830566,102.288048 
	C349.341217,70.830154 306.048096,54.835659 256.938019,55.035805 
	C256.929169,55.004539 256.990906,54.984352 256.990906,54.984352 
z"/>
<path fill="#F5F8FB" opacity="1.000000" stroke="none" 
	d="
M513.000000,224.531342 
	C512.337463,224.318542 511.153748,223.683411 511.088501,222.948883 
	C509.465149,204.680038 504.477814,187.198624 498.459381,170.011078 
	C492.318817,152.474777 483.991211,136.003494 474.155640,120.179253 
	C461.167572,99.282944 445.292328,80.796593 426.889069,64.816597 
	C413.797455,53.448860 399.225189,43.577591 384.483124,34.368050 
	C362.281952,20.498713 337.617737,12.207088 312.244659,6.187619 
	C305.293793,4.538602 298.069244,4.053664 290.983398,2.950234 
	C290.092468,2.811492 289.282013,2.155957 288.717133,1.369931 
	C363.593719,1.000000 438.187408,1.000000 513.000000,1.000000 
	C513.000000,75.354088 513.000000,149.708389 513.000000,224.531342 
z"/>
<path fill="#F5F8FB" opacity="1.000000" stroke="none" 
	d="
M1.000000,290.468658 
	C1.663598,290.626190 2.832603,291.190399 2.918142,291.887512 
	C6.762518,323.218658 16.715570,352.582245 31.744209,380.216705 
	C40.162769,395.696594 50.251465,410.063660 61.819672,423.445496 
	C77.317703,441.373322 94.639603,457.266724 114.235771,470.469421 
	C134.640228,484.216705 156.615311,495.183350 180.371002,501.818542 
	C194.395721,505.735779 208.884644,507.987854 223.153412,511.042023 
	C224.046585,511.233185 224.840286,511.889099 225.340134,512.664429 
	C150.406464,513.000000 75.812927,513.000000 1.000000,513.000000 
	C1.000000,438.979248 1.000000,364.958282 1.000000,290.468658 
z"/>
<path fill="#F5F8FB" opacity="1.000000" stroke="none" 
	d="
M289.468628,513.000000 
	C289.515900,512.343201 289.982300,511.159454 290.554901,511.105621 
	C312.253906,509.065674 332.899933,502.956848 353.076019,495.036377 
	C374.255890,486.721863 394.145294,475.920013 411.726105,461.518585 
	C424.737061,450.860535 437.701996,439.785736 448.758881,427.202087 
	C460.306519,414.059875 470.288910,399.355957 479.619354,384.495789 
	C493.544556,362.317657 501.793243,337.631500 507.812653,312.255432 
	C509.462280,305.301086 509.946899,298.072815 511.050385,290.983368 
	C511.189056,290.092590 511.844421,289.282257 512.630188,288.717346 
	C513.000000,363.593719 513.000000,438.187408 513.000000,513.000000 
	C438.645905,513.000000 364.291626,513.000000 289.468628,513.000000 
z"/>
<path fill="#F5F8FB" opacity="1.000000" stroke="none" 
	d="
M223.531342,1.000000 
	C223.373917,1.663610 222.809555,2.833106 222.112885,2.918107 
	C190.770203,6.742207 161.189438,16.369829 133.870956,31.922499 
	C119.103073,40.329994 105.087540,50.364082 91.799660,60.997765 
	C69.425407,78.902832 51.061268,100.683083 36.436337,125.310349 
	C21.851219,149.870605 11.300082,176.161438 6.010173,204.378128 
	C4.871282,210.453064 4.002469,216.578308 2.919549,222.664444 
	C2.790704,223.388580 2.093581,224.011597 1.329935,224.340744 
	C1.000000,149.739624 1.000000,75.479248 1.000000,1.000000 
	C75.020752,1.000000 149.041718,1.000000 223.531342,1.000000 
z"/>
<path fill="#FFEB97" opacity="1.000000" stroke="none" 
	d="
M256.960175,459.005615 
	C198.329468,458.141602 148.589188,436.568878 108.591072,393.711243 
	C79.585434,362.631958 61.993008,325.668304 56.933765,283.329620 
	C48.717060,214.567459 70.199303,156.057938 120.336388,108.606293 
	C151.205368,79.390709 188.400223,62.321537 230.688354,56.910034 
	C239.090469,55.834839 247.602066,55.615116 256.527039,54.992630 
	C256.990906,54.984352 256.929169,55.004539 256.954346,55.499245 
	C256.977814,81.279564 256.976044,106.565186 256.514221,131.931915 
	C253.227371,132.041260 250.375839,132.318039 247.579544,132.039780 
	C243.325455,131.616455 241.627563,132.935867 241.857040,137.515198 
	C242.231171,144.980972 241.754822,152.486984 242.042236,159.960449 
	C242.185257,163.679550 240.899414,165.233521 237.304077,165.955414 
	C227.881989,167.847305 219.515274,172.101822 211.610428,177.579086 
	C188.826752,193.365768 178.595337,244.196899 219.201981,260.449341 
	C231.508759,265.375000 244.393005,268.857849 257.080566,273.156250 
	C257.148346,273.310974 257.289581,273.617859 257.206238,274.113892 
	C257.014435,288.289093 256.905975,301.968292 256.787903,315.692749 
	C256.778320,315.738007 256.840668,315.806396 256.455505,315.730835 
	C235.326263,313.962250 216.941635,305.948608 199.786697,293.932251 
	C195.264160,302.788177 191.226974,311.191650 186.703842,319.324860 
	C184.673660,322.975433 185.437256,324.765320 188.788605,326.832001 
	C203.576828,335.951447 219.450562,342.163177 236.583420,344.967407 
	C240.574127,345.620575 242.259933,346.965149 242.062393,351.310638 
	C241.692062,359.457581 242.177277,367.641724 241.868164,375.793762 
	C241.700165,380.224213 242.820770,382.311462 247.624542,381.783447 
	C250.749252,381.440002 253.946884,381.759857 257.086609,381.811096 
	C257.061401,381.839661 257.076508,381.914398 257.053894,382.387939 
	C257.003204,408.218658 256.975098,433.575867 256.947021,458.933044 
	C256.947021,458.933044 256.929321,458.995544 256.960175,459.005615 
z"/>
<path fill="#FFD92B" opacity="1.000000" stroke="none" 
	d="
M257.417969,458.953125 
	C256.975098,433.575867 257.003204,408.218658 257.515411,382.376892 
	C261.163574,381.888824 264.337402,381.728088 267.489075,381.923676 
	C271.035492,382.143799 272.113403,380.593048 272.047241,377.206970 
	C271.884674,368.883728 272.166809,360.550171 271.925079,352.230774 
	C271.805206,348.104767 273.251953,346.766144 277.367004,345.765533 
	C285.864685,343.699249 294.664948,341.601654 302.312256,337.567352 
	C320.745270,327.843079 327.663879,311.336761 327.031860,291.015320 
	C326.462128,272.697144 317.932129,259.068359 301.490845,251.977966 
	C287.229156,245.827499 271.934845,242.071503 257.059448,237.147430 
	C257.022034,237.037598 256.953491,236.815887 256.967712,236.360962 
	C256.949554,222.088821 256.917236,208.271576 256.932404,194.325134 
	C256.979919,194.195923 257.064392,193.933868 257.449890,194.059814 
	C269.203125,195.111816 280.145050,197.765717 290.361206,202.867447 
	C295.478027,205.422684 300.294800,208.578705 305.464935,211.589783 
	C309.836792,203.622269 313.930786,195.833801 318.357513,188.239243 
	C320.404694,184.727097 319.907288,182.718796 316.352325,180.656250 
	C303.747925,173.343323 290.599731,167.484268 276.140594,165.091370 
	C272.983490,164.568893 271.889648,163.238327 271.969513,160.208496 
	C272.096497,155.390320 271.997772,150.566208 271.997498,145.744614 
	C271.996643,131.025635 271.997192,131.025635 257.090454,132.191864 
	C257.050659,132.078552 256.974274,131.850800 256.974274,131.850800 
	C256.976044,106.565186 256.977814,81.279564 256.963196,55.530510 
	C306.048096,54.835659 349.341217,70.830154 386.830566,102.288048 
	C423.201508,132.807480 446.546265,171.477295 455.349915,218.147461 
	C465.974060,274.468536 455.188019,326.755920 421.853302,373.663849 
	C390.788940,417.376892 348.623230,444.759888 296.003998,455.285309 
	C283.551331,457.776215 270.607086,457.809448 257.417969,458.953125 
z"/>
<path fill="#FF8700" opacity="1.000000" stroke="none" 
	d="
M257.096863,237.257233 
	C271.934845,242.071503 287.229156,245.827499 301.490845,251.977966 
	C317.932129,259.068359 326.462128,272.697144 327.031860,291.015320 
	C327.663879,311.336761 320.745270,327.843079 302.312256,337.567352 
	C294.664948,341.601654 285.864685,343.699249 277.367004,345.765533 
	C273.251953,346.766144 271.805206,348.104767 271.925079,352.230774 
	C272.166809,360.550171 271.884674,368.883728 272.047241,377.206970 
	C272.113403,380.593048 271.035492,382.143799 267.489075,381.923676 
	C264.337402,381.728088 261.163574,381.888824 257.538025,381.903320 
	C257.076508,381.914398 257.061401,381.839661 257.070618,381.358582 
	C257.000122,359.187103 256.920410,337.496765 256.840668,315.806396 
	C256.840668,315.806396 256.778320,315.738007 257.242493,315.735352 
	C265.316467,314.436859 273.261322,314.110962 280.459900,311.624481 
	C292.105469,307.601959 291.505615,290.008362 283.294525,284.350220 
	C275.336700,278.866608 266.677521,275.450806 257.289581,273.617859 
	C257.289581,273.617859 257.148346,273.310974 257.079224,272.687073 
	C257.039032,260.461212 257.067963,248.859222 257.096863,237.257233 
z"/>
<path fill="#FFA81F" opacity="1.000000" stroke="none" 
	d="
M257.059448,237.147415 
	C257.067963,248.859222 257.039032,260.461212 257.011414,272.532349 
	C244.393005,268.857849 231.508759,265.375000 219.201981,260.449341 
	C178.595337,244.196899 188.826752,193.365768 211.610428,177.579086 
	C219.515274,172.101822 227.881989,167.847305 237.304077,165.955414 
	C240.899414,165.233521 242.185257,163.679550 242.042236,159.960449 
	C241.754822,152.486984 242.231171,144.980972 241.857040,137.515198 
	C241.627563,132.935867 243.325455,131.616455 247.579544,132.039780 
	C250.375839,132.318039 253.227371,132.041260 256.514221,131.931915 
	C256.974274,131.850800 257.050659,132.078552 257.056671,132.635269 
	C257.063232,153.439285 257.063812,173.686569 257.064392,193.933868 
	C257.064392,193.933868 256.979919,194.195923 256.514709,194.240082 
	C250.212997,195.394958 244.132568,195.820801 238.601822,197.790222 
	C231.730194,200.237091 228.485138,206.073807 228.006943,213.359299 
	C227.529236,220.637192 230.610123,226.284576 236.964798,229.328812 
	C243.356430,232.390747 250.269135,234.364990 256.953491,236.815887 
	C256.953491,236.815887 257.022034,237.037598 257.059448,237.147415 
z"/>
<path fill="#FFA91F" opacity="1.000000" stroke="none" 
	d="
M256.455505,315.730835 
	C256.920410,337.496765 257.000122,359.187103 257.095825,381.330017 
	C253.946884,381.759857 250.749252,381.440002 247.624542,381.783447 
	C242.820770,382.311462 241.700165,380.224213 241.868164,375.793762 
	C242.177277,367.641724 241.692062,359.457581 242.062393,351.310638 
	C242.259933,346.965149 240.574127,345.620575 236.583420,344.967407 
	C219.450562,342.163177 203.576828,335.951447 188.788605,326.832001 
	C185.437256,324.765320 184.673660,322.975433 186.703842,319.324860 
	C191.226974,311.191650 195.264160,302.788177 199.786697,293.932251 
	C216.941635,305.948608 235.326263,313.962250 256.455505,315.730835 
z"/>
<path fill="#FFD82B" opacity="1.000000" stroke="none" 
	d="
M257.206238,274.113892 
	C266.677521,275.450806 275.336700,278.866608 283.294525,284.350220 
	C291.505615,290.008362 292.105469,307.601959 280.459900,311.624481 
	C273.261322,314.110962 265.316467,314.436859 257.252075,315.690063 
	C256.905975,301.968292 257.014435,288.289093 257.206238,274.113892 
z"/>
<path fill="#FF8800" opacity="1.000000" stroke="none" 
	d="
M257.449890,194.059814 
	C257.063812,173.686569 257.063232,153.439285 257.096466,132.748596 
	C271.997192,131.025635 271.996643,131.025635 271.997498,145.744614 
	C271.997772,150.566208 272.096497,155.390320 271.969513,160.208496 
	C271.889648,163.238327 272.983490,164.568893 276.140594,165.091370 
	C290.599731,167.484268 303.747925,173.343323 316.352325,180.656250 
	C319.907288,182.718796 320.404694,184.727097 318.357513,188.239243 
	C313.930786,195.833801 309.836792,203.622269 305.464935,211.589783 
	C300.294800,208.578705 295.478027,205.422684 290.361206,202.867447 
	C280.145050,197.765717 269.203125,195.111816 257.449890,194.059814 
z"/>
<path fill="#FFEA96" opacity="1.000000" stroke="none" 
	d="
M256.967712,236.360962 
	C250.269135,234.364990 243.356430,232.390747 236.964798,229.328812 
	C230.610123,226.284576 227.529236,220.637192 228.006943,213.359299 
	C228.485138,206.073807 231.730194,200.237091 238.601822,197.790222 
	C244.132568,195.820801 250.212997,195.394958 256.467224,194.369293 
	C256.917236,208.271576 256.949554,222.088821 256.967712,236.360962 
z"/>
</svg>